<svg xmlns="http://www.w3.org/2000/svg" width="1280" height="1280" xmlns:v="https://vecta.io/nano"><path d="M0 0h1280v1280H0V0z" fill="#f3f2ee"/><path d="M570 593l40.737-.104 18.919-.047 18.285-.039 6.949-.022c39.042-.176 39.042-.176 51.111 9.211l1.742 1.203c6.125 4.574 9.408 10.87 10.703 18.379.359 7.6-2.169 14.745-6.758 20.793-4.252 4.153-8.654 6.894-14.687 7.625v2l2.438.25c7.904 1.664 15.316 5.086 20.039 11.871 4.211 7.352 4.831 14.333 2.895 22.547-3.22 9.313-9.597 16.013-18.371 20.332-14.675 5.01-29.816 4.523-45.133 4.391l-7.725-.017-18.103-.085-20.649-.087L570 711v-3l2.301-.148 3.012-.227 2.988-.211c2.915-.253 2.915-.253 5.699-2.414 2.312-5.031 2.285-9.795 2.259-15.215l.011-2.752-.004-8.971.006-6.254-.011-13.093.007-16.766v-12.909l.005-6.181-.014-8.645.012-2.57c-.033-4.58-.379-8.383-2.271-12.645-4.102-2.611-9.246-2.606-14-3v-3z" fill="#060606"/><path d="M518 612c2.938 1.125 2.938 1.125 5 3 .561 3.297.524 5.138-1.226 8.017-2.05 2.291-3.926 3.377-6.661 4.772a335.67 335.67 0 0 0-12.383 6.797l-3.234 1.87-3.309 1.919-6.875 3.977-3.297 1.907-14.379 8.226a173.85 173.85 0 0 0-5.367 3.219C464 657 464 657 462 657v2l2.517-.02 23.483-.135 12.073-.071 11.652-.058 4.445-.033 6.227-.023 3.58-.02c3.31.395 4.684 1.028 7.025 3.361.609 2.262.609 2.262.75 4.688l.172 2.449L534 671c-4.434 2.533-7.649 3.384-12.74 3.432l-1.953.031-6.33.048-4.413.054-11.57.103-11.825.121L462 675l2.292 1.313 8.487 4.875 3.66 2.101 5.288 3.039 3.206 1.841c2.141 1.278 4.243 2.622 6.312 4.014 2.401 1.583 3.959 2.387 6.756 2.817v2l2.375.625c4.94 1.874 9.174 4.557 13.625 7.375l2.199 1.258c1.926 1.18 1.926 1.18 4.801 3.742.688 3.563.688 3.563 0 7-1.687 2.438-1.687 2.438-4 4-4.867.73-8.559-1.437-12.75-3.625l-2.152-1.098c-4.638-2.406-9.014-5.039-13.293-8.042-2.475-1.693-5.103-2.94-7.805-4.234l-6.852-3.816c-2.026-1.116-4.073-2.164-6.148-3.184v-2l-2.187-.25c-3.39-.904-5.124-2.532-7.812-4.75-2.679-1.24-2.679-1.24-5-2l1.242 1.574 1.633 2.113 1.617 2.074c1.581 2.347 2.488 4.606 3.508 7.238a131.17 131.17 0 0 0 2.75 4.625c2.776 4.543 5.351 9.168 7.883 13.852 2.65 4.891 5.452 9.685 8.305 14.461l1.535 2.574a123.56 123.56 0 0 0 3.023 4.695c2.763 4.093 4.145 6.661 3.504 11.793-4.143 2.368-7.21 3.917-12 3-3.923-3.732-6.293-8.077-8.789-12.852-1.16-2.176-1.16-2.176-2.691-4.082-1.756-2.388-2.938-4.825-4.207-7.504-2.725-5.551-5.814-10.757-9.108-15.986-2.248-3.611-4.365-7.29-6.462-10.99l-1.1-1.933L441 698l-.018 2.606-.218 24.28-.111 12.483-.117 12.041-.034 4.6-.07 6.429-.034 3.701L440 767c-3.218 2.146-4.268 2.296-8 2.313l-2.625.051C427 769 427 769 425.379 767.889c-2.039-2.793-1.779-5.04-1.811-8.471l-.031-2.011-.048-6.574-.054-4.561-.103-11.999-.121-12.246L423 698l-2.41 3.293-1.356 1.852c-1.451 2.18-2.398 4.476-3.359 6.906-1.503 3.348-3.483 6.411-5.398 9.535a187.8 187.8 0 0 0-3.539 6.039 178.09 178.09 0 0 1-4.312 7.125c-2.595 4.109-4.902 8.354-7.195 12.637L394 748l-1.402 2.793C391 753 391 753 388.879 753.664c-6.208-.105-6.208-.105-9.504-2.852-1.636-3.346-1.355-4.31-.375-7.812.98-2.07.98-2.07 2.188-4.125 1.969-3.412 3.885-6.842 5.75-10.312 3.432-6.299 6.964-12.546 11.063-18.437 1.893-2.958 3.401-5.908 4.938-9.062 2.323-4.746 4.836-8.886 8.063-13.062-5.897 2.851-11.479 6.018-17.062 9.438-8.759 5.32-17.638 10.398-26.598 15.373l-2.816 1.573-2.502 1.387c-2.145 1.196-2.145 1.196-4.021 3.23l-5 2-2 2c-2.997-.103-4.334-1.25-6.75-3.062-3.046-3.977-2.665-6.039-2.25-10.937l2.125-1.137c5.192-2.801 10.256-5.639 15.121-8.98C361 698 361 698 365 698v-2l3.324-1.863 4.363-2.449 2.186-1.225c6.629-3.723 13.042-7.684 19.408-11.842C397 677 397 677 402 675l-67-1c-2.581-6.452-2.581-6.452-2-11 2.158-2.849 3.356-3.885 6.911-4.519l3.418-.027 3.882-.06 4.18-.004 4.288-.05 11.264-.079 11.503-.102L401 658l-1.557-.854-7.068-3.896-2.449-1.344c-4.453-2.462-8.728-5.031-12.926-7.906l-5-2.75c-6.737-3.635-13.388-7.393-20-11.25l-2.891-1.598c-2.271-1.339-4.229-2.556-6.109-4.402-.875-3.625-.875-3.625 0-7 2.429-2.786 3.977-3.853 7.645-4.379 4.662.526 7.917 2.525 11.918 4.879l2.405 1.374c5.756 3.311 11.392 6.799 17.017 10.325 3.919 2.34 7.976 4.305 12.09 6.277 4.046 2.107 7.738 4.661 11.453 7.301 2.398 1.44 2.398 1.44 5.043 1.07 2.452-.856 4.249-1.858 6.367-3.348 3.451-2.226 5.887-3.254 10.063-3.5l2.465-.187c9.538-.428 16.934 2.587 24.535 8.188l3.063-1.937c9.161-5.717 18.389-11.293 27.91-16.391 4.733-2.614 9.373-5.387 14.015-8.158 12.211-7.256 12.211-7.256 19.012-6.514z" fill="#070707"/><path d="M725 593l23.474-.11 7.966-.041c47.13-.302 47.13-.302 59.56 11.151 5.87 5.8 9.004 10.394 9.25 18.813A153.77 153.77 0 0 1 825 628l-.137 2.293c-.984 7.219-5.389 12.145-10.863 16.707-2.948 1.474-5.763 2.403-9 3v2l2.438.25c10.052 2.116 16.116 6.985 21.754 15.563 2.422 6.552 1.765 15.132-.289 21.695-2.885 6.139-6.181 10.805-11.902 14.492l-1.625 1.137c-11.204 6.728-27.06 6.301-39.691 6.156l-4.434-.013-11.476-.074-11.788-.06L725 711v-3l2.266-.078c6.056-.221 6.056-.221 11.359-2.797 1.984-3.067 2.501-5.563 2.522-9.135l.022-2.464.008-2.692.02-2.844.041-9.326.012-3.216.045-16.843.085-17.409.038-13.378.035-6.418.016-8.977.039-2.68c-.035-4.075-.191-6.222-2.35-9.776-2.767-2.523-4.721-2.84-8.409-3.281l-3.266-.426L725 596v-3z" fill="#060606"/><path d="M833 593h91l1 26h-4l-.297-1.758c-.996-5.202-2.115-9.169-5.703-13.242-5.678-3.061-10.49-3.466-16.871-3.512l-2.481-.05-9.086-.125L866 600v46l16.625-.312 5.213-.075 4.138-.1 2.132-.019c4.668-.135 7.915-1.046 11.892-3.493 3.131-3.913 3.942-8.196 5-13h3v41h-3l-.297-1.793c-.95-5.021-1.858-8.582-5.703-12.207-4.22-2.174-8.272-2.339-12.926-2.414l-2.265-.059-7.121-.152-4.846-.117L866 653l.262 19.434.084 6.611.142 9.502.019 2.987.06 2.79.034 2.449c.503 2.808 1.415 4.193 3.399 6.227a49.72 49.72 0 0 0 8.035.531l2.404.012 5.046-.021 7.63.025c13.941.112 13.941.112 25.909-6.367 4.04-4.225 6.824-9.117 9.519-14.273L930 681h4l-10 30h-91v-3l1.758-.078c5.445-.395 8.947-1.271 13.242-4.922 1.339-4.017 1.147-7.885 1.145-12.074l.01-2.814.013-9.229.01-6.408.007-13.442.031-17.227.013-13.239.013-6.351.001-8.883.017-2.651c-.022-4.307-.132-7.808-2.26-11.681-2.919-2.069-5.734-2.347-9.25-2.625l-2.703-.227L833 596v-3z" fill="#030303"/><path d="M619.375 595.688l2.289-.088c3.972-.045 5.873.106 9.313 2.295 3.847 4.003 3.178 7.959 3.185 13.233l.015 2.868.027 9.426.017 6.54.02 13.73.058 17.587.025 13.517.024 6.483.009 9.077.028 2.702c-.034 5.068-.581 8.544-3.384 12.944-3.523 2.868-8.093 2.368-12.437 2.375l-2.275.074c-3.907.021-5.856-.183-9.26-2.285-2.779-2.967-3.151-5.338-3.175-9.25l-.022-2.515-.008-2.749-.02-2.903-.041-9.521-.012-3.283-.045-17.193-.085-17.772-.038-13.656-.035-6.552-.016-9.163-.039-2.736c.034-4.116.175-6.32 2.351-9.909 3.99-3.628 8.416-3.21 13.533-3.275z" fill="#f2f1ed"/><path d="M570 593h106v1h-49v2l-3.324.113-4.363.199-2.186.068c-4.469.224-7.472.789-11.127 3.619-1.726 3.451-1.156 7.436-1.161 11.236l-.015 2.903-.027 9.538-.017 6.614-.02 13.883-.058 17.795-.025 13.668-.024 6.561-.009 9.178-.028 2.741c.032 4.789.265 7.993 3.384 11.883 3.412 2.505 7.123 2.396 11.25 2.625l3.828.227L626 709v1c-7.33.78-14.549 1.139-21.918 1.098l-2.98-.004-9.29-.031-6.354-.014L570 711v-3l2.301-.148 3.012-.227 2.988-.211c2.915-.253 2.915-.253 5.699-2.414 2.312-5.031 2.285-9.795 2.259-15.215l.011-2.752-.004-8.971.006-6.254-.011-13.093.007-16.766v-12.909l.005-6.181-.014-8.645.012-2.57c-.033-4.58-.379-8.383-2.271-12.645-4.102-2.611-9.246-2.606-14-3v-3z" fill="#070606"/><path d="M651 654l12.5-.125 3.893-.055c11.177-.054 20.966 1.634 29.42 9.43 5.507 5.935 6.81 12.089 6.523 20.082-.947 7.524-5.141 12.259-10.887 16.969-9.104 6.316-21.759 5.787-32.449 4.699l-9-2v-49z" fill="#f0efec"/><path d="M759 654c33.351-1.071 33.351-1.071 43 7 5.075 5.31 9.113 11.548 9.438 19.063-.752 6.766-2.805 12.237-7.422 17.332-7.507 5.979-16.857 7.786-26.141 7.793l-2.477.037-2.469.006-2.211.012c-3.961-.354-7.836-1.38-11.718-2.243v-49z" fill="#f1f0ec"/><path d="M685.152 601.543c6.214 3.179 11.146 8.061 13.91 14.52 2.027 7.024 1.336 12.391-1.887 18.836-3.568 6.378-7.197 9.513-14.031 12.195-9.16 2.479-23.119 2.915-32.145-.094v-46c10.88-3.627 23.299-3.34 34.152.543zm87.411-2.918l2.413.005c9.078.187 17.992 2.342 25.024 8.37 6.55 7.773 7.685 12.764 7 23-1.245 5.247-4.175 10.258-8.824 13.125-2.037 1.055-4.051 2.009-6.176 2.875l-2.496 1.102c-5.222 1.339-10.324 1.147-15.691 1.086l-3.311-.002c-8.08-.045-8.08-.045-11.502-1.186v-46c5.077-2.031 8.26-2.386 13.563-2.375z" fill="#f0efeb"/><path d="M444.938 562.75l5.016 1.617 2.537.823 11.697 3.685 3.98 1.242L471 571v2l-13 5-.043 3.141-.145 4.109-.018 2.066c-.157 3.585-.496 5.358-2.951 8.027-10.8 6.29-24.373 7.536-36.453 4.855-7.887-2.443-7.887-2.443-10.391-6.199-.195-3.355-.195-3.355-.125-7.187l.055-3.855L408 580l-2.937-.312c-4.548-.634-8.757-2.135-13.062-3.687v-2l4.825-1.93 4.133-1.654 8.843-3.53 2.387-.949 2.344-.922c1.851-.761 3.681-1.572 5.5-2.406l3.156-1.422 2.855-1.332c6.421-1.858 12.767.879 18.895 2.895z" fill="#040404"/><path d="M923 732h6v25h6v5h-12l-1-2-3 2c-7.738.563-7.738.563-11-2-3-5.143-3-5.143-3-8h-17c1.453 4.584 1.453 4.584 3 6 2.916.417 2.916.417 6 0 1.637-1.96 1.637-1.96 3-4h4c-.268 3.301-.56 4.625-3.125 6.813-3.578 1.478-6.031 1.599-9.875 1.188-4.146-1.79-6.21-3.854-8-8-.488-3.355-.731-5.748 1.02-8.746 2.153-2.713 3.669-4.15 6.98-5.254 7.145-.691 7.145-.691 10.938 2.375C904 745 904 745 905 747l1.066-1.531c4.036-5.311 4.036-5.311 8.496-6.094 3.487.634 5.59 1.554 8.438 3.625v-11z" fill="#1e1d1c"/><path d="M454 600c.538 7.154-.007 12.893-4 19-4.083 4.518-8.463 7.545-14.613 8.336-6.289.091-11.334-.342-16.387-4.336-4.548-5.025-7.142-8.793-7.062-15.625l.027-3.039L412 602l3.281.484c5.403.671 10.78.737 16.219.766l3.012.063c6.977.037 12.953-3.312 19.488-3.312z" fill="#050505"/><path d="M771 733h17v9l3.438-1.062c4.67-1.134 8.939-1.432 13.563.063 2.608 1.807 3.343 3.114 5 6 .74 5.179-.152 8.627-3 13-4.146 2.59-8.246 2.705-13 2-3.336-2.058-4.826-3.739-7-7-.385-1.655-.728-3.322-1-5h-10v12h-5v-29z" fill="#121110"/><path d="M876 732h5v30h-5l-1-2-3 2c-4.8.542-6.882.737-10.937-1.937-2.682-3.983-3.375-7.287-3.062-12.062 1.25-2.875 1.25-2.875 3-5l1.25-1.812c2.859-1.94 5.4-1.481 8.75-1.187l4 2 1-10z" fill="#1d1d1c"/><path d="M686 735h5v5h6v4h-6l1 13 5 1v4c-3.25.313-3.25.313-7 0-2.906-2.743-3.922-4.334-4.391-8.332l.141-3.48.109-3.52L686 744h-3v18h-5l-1-2-3 2c-4.227.548-6.222.568-9.707-1.977-3.088-4.072-2.875-6.886-2.605-11.836l.068-2.389L662 740h5l.184 3.43.254 4.445.119 2.262c.159 4.063.159 4.063 1.443 7.863 2.917.167 2.917.167 6 0 2.934-2.934 2.462-6.183 2.625-10.125l.117-2.285L678 740h8v-5z" fill="#1f1e1d"/><path d="M771 733h17v9l3 1-2 3c-.454 2.279-.454 2.279-.625 4.688l-.227 2.449L788 755h-1l-1-5h-10v12h-5v-29z" fill="#cecdcb"/><path d="M749 740c5.5 3 5.5 3 7 6v6h-17c1.769 3.181 1.769 3.181 4 6 2.415.417 2.415.417 5 0l1.5-2 1.5-2c2.688-.25 2.688-.25 5 0-.562 3.262-1.414 4.911-4 7-3.717 1.239-7.144 1.684-11 1-3.22-2.535-4.704-4.113-6-8-.573-7.103-.573-7.103 1.875-10.937 3.646-3.539 7.208-3.747 12.125-3.062z" fill="#141312"/><path d="M628 740c5.5 3 5.5 3 7 6v6h-17l3 6c2.874.334 2.874.334 6 0a125.01 125.01 0 0 0 3-4c2.688-.25 2.688-.25 5 0-.909 3.057-1.675 4.723-4.125 6.813-3.743 1.546-6.881 1.938-10.875 1.188-2.81-1.794-4.509-3.019-6-6-.531-4.92-.751-8.773 1.875-13.062 3.704-3.377 7.261-3.614 12.125-2.937z" fill="#100f0e"/><path d="M591 733h4l1 10 3-3c3.915-.507 6.207-.425 9.707 1.449 3.374 3.753 2.852 6.939 2.605 11.801l-.068 2.547L611 762h-4l-.184-3.465-.254-4.473-.119-2.287c.116-3.695.116-3.695-1.443-6.775-3.458-.333-3.458-.333-7 0-2.425 3.637-2.387 5.857-2.625 10.188l-.227 3.855L595 762h-4v-29z" fill="#0d0c0b"/><path d="M811 740h5l1 18c6.504.738 6.504.738 8.895-1.547 1.477-3.278 1.627-6.12 1.793-9.703l.199-3.828L828 740h4v22h-4l-1-3-1.625 1.5c-3.041 1.92-4.831 1.869-8.375 1.5-2.461-.82-3.608-1.444-5.102-3.562-1.301-3.53-1.109-6.981-1.023-10.687l.027-2.258L811 740z" fill="#1a1918"/><path d="M836 740h4l1 3 1.063-1.5c1.938-1.5 1.938-1.5 5.313-2 4.656.642 5.803 1.783 8.625 5.5.59 2.968.477 5.801.313 8.813l-.068 2.389L856 762h-4l-.184-3.465-.254-4.473-.119-2.287c.116-3.695.116-3.695-1.443-6.775-3.458-.333-3.458-.333-7 0-2.425 3.637-2.387 5.857-2.625 10.188l-.227 3.855L840 762h-4v-22z" fill="#141311"/><path d="M686 735h5v5h6v4h-6l1 13 5 1v4c-3.25.313-3.25.313-7 0-2.906-2.743-3.922-4.334-4.391-8.332l.141-3.48.109-3.52L686 744h-3v-3h-4v13h-1v-14h8v-5z" fill="#292827"/><path d="M699 740h4l.148 3.43.227 4.445.094 2.262c.088 4.398.088 4.398 2.531 7.863 3.597-.323 3.597-.323 7-1 1.105-3.315 1.321-6.204 1.563-9.687l.254-3.574L715 741h4v21h-4l-1-3-1.562 1.5c-3.386 2.084-5.531 2.058-9.437 1.5-2.36-2.121-3.812-3.807-4.316-7.004l.066-6.808.055-2.389L699 740z" fill="#090807"/><path d="M771 734h16v3h-12v10h10v2h-10v13h-4v-28z" fill="#0a0908"/><path d="M644 734h16v3h-12v10h10v2h-10v13h-4v-28z" fill="#0b0a09"/><path d="M798.5 743.563c3.5.438 3.5.438 5.191 1.684 2.085 2.794 1.783 5.275 1.656 8.652C805 756 805 756 803.375 758.125c-3.245 1.195-5.096.922-8.375-.125-2.535-2.282-2.951-3.609-3.375-7 .633-5.065 1.68-6.788 6.875-7.437z" fill="#e8e7e4"/><path d="M873 744l3 2c.363 2.059.363 2.059.313 4.438l-.012 2.371C876 755 876 755 874 758c-7.004.778-7.004.778-10-1.562-1.37-3.34-1.39-5.863-1-9.437 2.226-4.06 5.794-3.375 10-3z" fill="#e7e6e3"/><path d="M570 734h20v3h-8v25h-4v-25h-8v-3z" fill="#010100"/><path d="M920 744c1.938 1.563 1.938 1.563 3 4 .385 4.389.473 6.29-2 10-7.004.778-7.004.778-10-1.562-1.37-3.34-1.39-5.863-1-9.437 2.219-4.046 5.804-3.524 10-3z" fill="#e9e8e5"/><path d="M570 593h106v1h-49v2h-16v-2l-33 1v1h-8v-3z" fill="#191917"/><path d="M412 597l1.625.656C426 602.053 438.61 600.564 451 597c-.625 2.375-.625 2.375-2 5-5.324 2.86-11.486 2.295-17.375 2.25l-3.039.023c-5.878-.015-10.954-.58-16.586-2.273v8h-1l-.062-4.25-.035-2.391c.094-2.266.465-4.188 1.098-6.359z" fill="#ececea"/><path d="M722 740h5l1 2 3-2h4v4l-3.437 1.375c-3.61 1.196-3.61 1.196-4.562 3.625l-.562 6.625-.254 3.602L726 762h-4v-22z" fill="#1f1e1e"/><path d="M423 697h1v67h-1l-1-53-7 1c1.272-6.104 3.85-10.342 8-15z" fill="#e9e9e7"/><path d="M698 740h1v20l-8-3v-13h7v-4z" fill="#ebeae6"/><path d="M591 733h4v29h-4v-29z" fill="#0f0e0d"/><path d="M924 733h3v29h-3v-5h-2v-12h2v-12z" fill="#0b0a0a"/><path d="M846 740c6.408.484 6.408.484 8.719 2.5 1.906 3.719 1.602 7.139 1.469 11.25l-.041 2.402L856 762h-4l-.148-3.43-.227-4.445-.094-2.262c-.088-4.398-.088-4.398-2.531-7.863-2.571-.648-2.571-.648-5-1l2-3z" fill="#0b0a09"/><path d="M828 740h4v22h-4c-2-3-2-3-2-6l1-2a214.86 214.86 0 0 0 .563-7.125l.254-3.883L828 740z" fill="#080707"/><path d="M332 664h1l2 9 68 1c-2 2-2 2-4.708 2.203l-3.486-.067-3.943-.061-4.277-.098-4.363-.076-11.491-.227-11.723-.221L336 675l-1 3-3-1v-13z" fill="#b3b2b0"/><path d="M888 752h17l1 5h-2v-3c-1.906.204-1.906.204-4 1l-1.375 2.063C897 759 897 759 894 759.438c-3-.437-3-.437-4.875-1.687C888 756 888 756 888 752z" fill="#dddcd9"/><path d="M679 741h4v21h-4c-1.258-7.13-.711-13.819 0-21z" fill="#0e0d0c"/><path d="M893 740c3.976-.462 5.569-.31 8.875 2.063C904 745 904 745 904 752h-16l1-2h11l-2-5c-3.03-1.372-3.03-1.372-6-2l1-3z" fill="#100f0e"/><path d="M618 752h17l1 2h-6l-.937 1.938C628 758 628 758 627 759c-2.875.313-2.875.313-6 0-1.875-1.812-1.875-1.812-3-4v-3z" fill="#dedddb"/><path d="M453 688c4.55 1.27 7.407 2.974 11 6 1.311.709 2.638 1.395 4 2h-2v2h-2l-1 6c-3.145-2.831-4.479-5.104-6-9l-4-5v-2z" fill="#d9d9d7"/><path d="M725 593h57v1h-47l1 3-11-1v-3z" fill="#1a1918"/><path d="M630 754c2.688-.25 2.688-.25 5 0-.909 3.057-1.675 4.723-4.125 6.813-3.987 1.647-6.559 1.599-10.875 1.188-2.5-1.5-2.5-1.5-4-3l1-4h2l2 3c2.957.583 2.957.583 6 0a125.01 125.01 0 0 0 3-4z" fill="#171615"/><path d="M396 655c4.875 1.75 4.875 1.75 6 4h-64v-1h57l1-3z" fill="#dedddb"/><path d="M625.563 743.188C629 744 629 744 631 747v3h-13l1-5c3-2 3-2 6.563-1.812z" fill="#ebeae8"/><path d="M746.563 743.125C750 744 750 744 752 747v3h-13c1.331-5.326 1.844-7.076 7.563-6.875z" fill="#eeedeb"/><path d="M400 591h4l1 18-4 2c-1-1-1-1-1.114-2.858l.016-2.396.01-2.588.025-2.721.014-2.732L400 591z" fill="#272624"/><path d="M893.938 742.688C897 743 897 743 898.875 744.25 900 746 900 746 900 750h-12c1.365-6.826 1.365-6.826 5.938-7.312z" fill="#dbdad8"/><path d="M739 752h17v1l-6 1v3c-2 2-2 2-4.375 2.375-3.431-.49-4.536-1.667-6.625-4.375v-3z" fill="#e0dfdc"/><path d="M423 697c1.067 3.2.948 4.885.563 8.188l-.309 2.73L423 710c-5.75 2-5.75 2-8 2 1.29-6.193 3.996-10.153 8-15z" fill="#d6d6d3"/><path d="M928 732h1v25h6v5h-7v-30z" fill="#c9c8c5"/><path d="M817 643l1 2-1.5 1.625c-1.875 2.969-1.735 4.928-1.5 8.375l-10-3v-2l2.117-1.023 2.758-1.352 2.742-1.336c2.478-1.194 2.478-1.194 4.383-3.289z" fill="#cfcfcc"/><path d="M401 579l7 1-1 7-2-1-2 1v4h-2v-12z" fill="#d9d8d5"/><path d="M412 597l10 3v2l2 2-4.312-.437-2.426-.246C415 603 415 603 412 602v8h-1l-.062-4.25-.035-2.391C411 601 411 601 412 597z" fill="#bab9b7"/><path d="M866 740c6.395.698 6.395.698 9 2v2l2 1h-12c0-4 0-4 1-5z" fill="#141312"/><path d="M627 743l-3 2-4 4h9l1-4 1 5h-13l1-5c3.228-2.152 4.284-2.201 8-2z" fill="#c0bfbd"/><path d="M691 744h1l.25 3.813c.373 3.489.373 3.489 2.813 6L697 755v3h-5c-1-1-1-1-1.098-3.941l.035-3.621.027-3.629L691 744z" fill="#dbdad7"/><path d="M451 598c-.625 1.875-.625 1.875-2 4-3.753 1.668-6.912 2.24-11 2l4-2v-3c6.75-2.125 6.75-2.125 9-1z" fill="#bebebc"/><path d="M748 743l-1.875.25c-2.66.662-2.66.662-4.125 4.75l9 1 1-2v3h-13c1.456-5.824 2.933-7.492 9-7z" fill="#c5c4c2"/><path d="M612 745h2v9h-1l-1 8h-1l-.062-7.937-.025-2.287L611 746l1-1z" fill="#a5a4a2"/><path d="M842 745l1 3 2 2-1.457 1.207c-1.917 2.227-2.02 3.581-2.23 6.48l-.199 2.449L841 762h-1l-.125-6.812-.07-3.832C840 748 840 748 842 745z" fill="#d7d6d3"/><path d="M735 740v4l-7 2-2-2h2l1-3c2-1 2-1 6-1z" fill="#121111"/><path d="M729 745l3 1-3 4h-2v12h-1l-.187-6.25-.105-3.516c.313-3.457.95-4.75 3.293-7.234z" fill="#b0afae"/><path d="M570 708h10l-1 3h-9v-3z" fill="#21211d"/><path d="M757 759h4v7l-4 2v-2h2v-3h-2v-4z" fill="#1c1b19"/><path d="M833 708h9l1 3h-10v-3z" fill="#21201e"/><path d="M411 688c-1.25 3.653-1.671 4.781-5 7l-2-2-2-1c6.75-4 6.75-4 9-4z" fill="#b3b2b2"/><path d="M332 664h1l3 13-4 1v-14z" fill="#cecdca"/><path d="M930 757h5v5h-5v-5z" fill="#181714"/><path d="M723 675h1v7l2 1c-.312 1.938-.312 1.938-1 4l-3 1 1-13z" fill="#dfdedc"/><path d="M930 681h4l-2 6-4-1 2-5z" fill="#282725"/><path d="M438 767l2 1c-1.734 2.099-2.9 2.965-5.5 3.875-2.5.125-2.5.125-4.312-1.312L429 769l6.152-.684c1.859-.135 1.859-.135 2.848-1.316z" fill="#c4c3bf"/><path d="M599 740l2 1-1 1 4 2-3.375.875c-3.628.817-3.628.817-5.625 3.125.498-3.688 1.101-5.605 4-8z" fill="#403e3e"/><path d="M923 737v6l-5-2 1-3c2-1 2-1 4-1z" fill="#d8d8d4"/><path d="M705 649l-2 4-6-1v-2c4.625-2.125 4.625-2.125 8-1z" fill="#bbbbb9"/><path d="M793 755l2.188.438L798 756l5 1-2 2c-3-.187-3-.187-6-1l-2-3z" fill="#bfbfbc"/><path d="M733 739l4 1v4l-2 2-4-2h4v-4l-2-1z" fill="#d2d0cf"/><path d="M369 712c-1.37 3.161-1.989 3.993-5 6v-2l-2-1c4.75-3 4.75-3 7-3z" fill="#c3c2c0"/><path d="M887 760l9 2-4 1-1 2-4-2v-3z" fill="#d3d2cf"/><path d="M624 744l2 1-1 3-5 1c1.75-3.875 1.75-3.875 4-5z" fill="#f4f3f1"/><path d="M844 740l2 1-1 1 4 2-8 2c0-3 0-3 1.5-4.687L844 740z" fill="#434240"/><path d="M716 632l2 3c-1.312 2.5-1.312 2.5-3 5h-3l4-8z" fill="#d1d0cd"/><path d="M612 752c1.892 2.386 3.024 4.072 4 7l-2 1-2-1v-7z" fill="#e7e5e4"/></svg>